<?xml version="1.0" encoding="UTF-8" standalone="no"?>
<!DOCTYPE svg PUBLIC "-//W3C//DTD SVG 1.1//EN"
 "http://www.w3.org/Graphics/SVG/1.1/DTD/svg11.dtd">
<!-- Generated by graphviz version 2.38.0 (20140413.2041)
 -->
<!-- Title: %3 Pages: 1 -->
<svg width="1134pt" height="801pt"
 viewBox="0.00 0.00 1134.16 800.93" xmlns="http://www.w3.org/2000/svg" xmlns:xlink="http://www.w3.org/1999/xlink">
<g id="graph0" class="graph" transform="scale(1 1) rotate(0) translate(4 796.932)">
<title>%3</title>
<polygon fill="white" stroke="none" points="-4,4 -4,-796.932 1130.16,-796.932 1130.16,4 -4,4"/>
<!-- example.com/hello -->
<g id="node1" class="node"><title>example.com/hello</title>
<polygon fill="#e94762" stroke="none" points="560.966,-414.466 416.966,-414.466 416.966,-378.466 560.966,-378.466 560.966,-414.466"/>
<text text-anchor="middle" x="488.966" y="-392.766" font-family="Helvetica,sans-Serif" font-size="14.00">example.com/hello</text>
</g>
<!-- github.com/kr/pretty -->
<g id="node2" class="node"><title>github.com/kr/pretty</title>
<text text-anchor="middle" x="678.199" y="-471.149" font-family="Helvetica,sans-Serif" font-size="14.00">github.com/kr/pretty</text>
</g>
<!-- example.com/hello&#45;&gt;github.com/kr/pretty -->
<g id="edge1" class="edge"><title>example.com/hello&#45;&gt;github.com/kr/pretty</title>
<path fill="none" stroke="black" d="M532.855,-414.645C560.321,-426.022 595.885,-440.753 624.958,-452.795"/>
<polygon fill="black" stroke="black" points="623.969,-456.174 634.547,-456.768 626.648,-449.707 623.969,-456.174"/>
</g>
<!-- github.com/sirupsen/logrus -->
<g id="node3" class="node"><title>github.com/sirupsen/logrus</title>
<text text-anchor="middle" x="299.733" y="-314.383" font-family="Helvetica,sans-Serif" font-size="14.00">github.com/sirupsen/logrus</text>
</g>
<!-- example.com/hello&#45;&gt;github.com/sirupsen/logrus -->
<g id="edge2" class="edge"><title>example.com/hello&#45;&gt;github.com/sirupsen/logrus</title>
<path fill="none" stroke="black" d="M445.076,-378.286C417.61,-366.909 382.047,-352.179 352.974,-340.136"/>
<polygon fill="black" stroke="black" points="353.963,-336.757 343.384,-336.164 351.284,-343.224 353.963,-336.757"/>
</g>
<!-- github.com/kr/text -->
<g id="node4" class="node"><title>github.com/kr/text</title>
<text text-anchor="middle" x="867.432" y="-549.531" font-family="Helvetica,sans-Serif" font-size="14.00">github.com/kr/text</text>
</g>
<!-- github.com/kr/pretty&#45;&gt;github.com/kr/text -->
<g id="edge3" class="edge"><title>github.com/kr/pretty&#45;&gt;github.com/kr/text</title>
<path fill="none" stroke="black" d="M722.088,-493.028C749.554,-504.405 785.118,-519.136 814.191,-531.178"/>
<polygon fill="black" stroke="black" points="813.202,-534.557 823.78,-535.15 815.881,-528.09 813.202,-534.557"/>
</g>
<!-- github.com/davecgh/go&#45;spew -->
<g id="node6" class="node"><title>github.com/davecgh/go&#45;spew</title>
<text text-anchor="middle" x="645.731" y="-771.232" font-family="Helvetica,sans-Serif" font-size="14.00">github.com/davecgh/go&#45;spew</text>
</g>
<!-- github.com/sirupsen/logrus&#45;&gt;github.com/davecgh/go&#45;spew -->
<g id="edge5" class="edge"><title>github.com/sirupsen/logrus&#45;&gt;github.com/davecgh/go&#45;spew</title>
<path fill="none" stroke="black" d="M313.51,-336.274C367.165,-407.118 562.301,-664.772 625.692,-748.472"/>
<polygon fill="black" stroke="black" points="623.087,-750.83 631.915,-756.689 628.668,-746.604 623.087,-750.83"/>
</g>
<!-- github.com/konsorten/go&#45;windows&#45;terminal&#45;sequences -->
<g id="node7" class="node"><title>github.com/konsorten/go&#45;windows&#45;terminal&#45;sequences</title>
<text text-anchor="middle" x="332.2" y="-771.232" font-family="Helvetica,sans-Serif" font-size="14.00">github.com/konsorten/go&#45;windows&#45;terminal&#45;sequences</text>
</g>
<!-- github.com/sirupsen/logrus&#45;&gt;github.com/konsorten/go&#45;windows&#45;terminal&#45;sequences -->
<g id="edge6" class="edge"><title>github.com/sirupsen/logrus&#45;&gt;github.com/konsorten/go&#45;windows&#45;terminal&#45;sequences</title>
<path fill="none" stroke="black" d="M301.026,-336.274C306.025,-406.617 324.113,-661.134 330.192,-746.669"/>
<polygon fill="black" stroke="black" points="326.703,-746.962 330.904,-756.689 333.686,-746.466 326.703,-746.962"/>
</g>
<!-- github.com/pmezard/go&#45;difflib -->
<g id="node8" class="node"><title>github.com/pmezard/go&#45;difflib</title>
<text text-anchor="middle" x="110.5" y="-549.531" font-family="Helvetica,sans-Serif" font-size="14.00">github.com/pmezard/go&#45;difflib</text>
</g>
<!-- github.com/sirupsen/logrus&#45;&gt;github.com/pmezard/go&#45;difflib -->
<g id="edge7" class="edge"><title>github.com/sirupsen/logrus&#45;&gt;github.com/pmezard/go&#45;difflib</title>
<path fill="none" stroke="black" d="M285.198,-336.144C251.969,-377.436 170.336,-478.877 131.581,-527.035"/>
<polygon fill="black" stroke="black" points="128.627,-525.124 125.084,-535.109 134.08,-529.512 128.627,-525.124"/>
</g>
<!-- github.com/stretchr/objx -->
<g id="node9" class="node"><title>github.com/stretchr/objx</title>
<text text-anchor="middle" x="110.5" y="-236" font-family="Helvetica,sans-Serif" font-size="14.00">github.com/stretchr/objx</text>
</g>
<!-- github.com/sirupsen/logrus&#45;&gt;github.com/stretchr/objx -->
<g id="edge8" class="edge"><title>github.com/sirupsen/logrus&#45;&gt;github.com/stretchr/objx</title>
<path fill="none" stroke="black" d="M255.843,-299.903C228.377,-288.527 192.814,-273.796 163.741,-261.753"/>
<polygon fill="black" stroke="black" points="164.73,-258.374 154.151,-257.781 162.051,-264.842 164.73,-258.374"/>
</g>
<!-- github.com/stretchr/testify -->
<g id="node10" class="node"><title>github.com/stretchr/testify</title>
<text text-anchor="middle" x="332.2" y="-14.3" font-family="Helvetica,sans-Serif" font-size="14.00">github.com/stretchr/testify</text>
</g>
<!-- github.com/sirupsen/logrus&#45;&gt;github.com/stretchr/testify -->
<g id="edge9" class="edge"><title>github.com/sirupsen/logrus&#45;&gt;github.com/stretchr/testify</title>
<path fill="none" stroke="black" d="M301.715,-299.763C307.196,-249.105 322.584,-106.881 329.159,-46.1083"/>
<polygon fill="black" stroke="black" points="332.648,-46.3985 330.244,-36.08 325.689,-45.6455 332.648,-46.3985"/>
</g>
<!-- golang.org/x/crypto -->
<g id="node11" class="node"><title>golang.org/x/crypto</title>
<text text-anchor="middle" x="645.731" y="-14.3" font-family="Helvetica,sans-Serif" font-size="14.00">golang.org/x/crypto</text>
</g>
<!-- github.com/sirupsen/logrus&#45;&gt;golang.org/x/crypto -->
<g id="edge10" class="edge"><title>github.com/sirupsen/logrus&#45;&gt;golang.org/x/crypto</title>
<path fill="none" stroke="black" d="M320.597,-299.987C379.845,-248.602 549.198,-101.723 617.079,-42.8503"/>
<polygon fill="black" stroke="black" points="619.578,-45.3155 624.84,-36.1193 614.992,-40.0273 619.578,-45.3155"/>
</g>
<!-- golang.org/x/sys -->
<g id="node12" class="node"><title>golang.org/x/sys</title>
<text text-anchor="middle" x="867.432" y="-236" font-family="Helvetica,sans-Serif" font-size="14.00">golang.org/x/sys</text>
</g>
<!-- github.com/sirupsen/logrus&#45;&gt;golang.org/x/sys -->
<g id="edge11" class="edge"><title>github.com/sirupsen/logrus&#45;&gt;golang.org/x/sys</title>
<path fill="none" stroke="black" d="M400.899,-304.115C513.542,-288.562 692.923,-263.795 793.266,-249.94"/>
<polygon fill="black" stroke="black" points="793.892,-253.387 803.319,-248.552 792.934,-246.453 793.892,-253.387"/>
</g>
<!-- github.com/kr/pty -->
<g id="node5" class="node"><title>github.com/kr/pty</title>
<text text-anchor="middle" x="1056.66" y="-627.914" font-family="Helvetica,sans-Serif" font-size="14.00">github.com/kr/pty</text>
</g>
<!-- github.com/kr/text&#45;&gt;github.com/kr/pty -->
<g id="edge4" class="edge"><title>github.com/kr/text&#45;&gt;github.com/kr/pty</title>
<path fill="none" stroke="black" d="M911.321,-571.411C938.787,-582.788 974.35,-597.519 1003.42,-609.561"/>
<polygon fill="black" stroke="black" points="1002.43,-612.94 1013.01,-613.533 1005.11,-606.473 1002.43,-612.94"/>
</g>
</g>
</svg>
